<?xml version="1.0" encoding="UTF-8"?>
<svg id="_レイヤー_1" data-name="レイヤー_1" xmlns="http://www.w3.org/2000/svg" version="1.1" viewBox="0 0 1600 250">
  <!-- Generator: Adobe Illustrator 30.0.0, SVG Export Plug-In . SVG Version: 2.1.1 Build 123)  -->
  <defs>
    <style>
      .st0 {
        fill: #c91e1d;
      }

      .st1 {
        fill: #00468c;
      }

      .st2 {
        fill: #fff;
      }
    </style>
  </defs>
  <path class="st0" d="M183.26,82.14l28.63-11.73c-9.07-5.98-19.73-10.86-31.54-14.3l-13.26,17c6.18,2.32,11.66,5.4,16.17,9.02"/>
  <path class="st1" d="M138.96,146.38c-9.29,0-18.05-1.5-25.82-4.12-3.11-1.05-6.06-2.27-8.82-3.66-5.1-2.58-9.54-5.72-13.15-9.27-2.24-2.22-4.16-4.61-5.71-7.12-2.82-4.6-4.37-9.64-4.37-14.93,0-12.51,8.71-23.65,22.25-30.8,2.76-1.45,5.71-2.74,8.81-3.84,8.01-2.84,17.12-4.44,26.8-4.44,6.53,0,12.8.74,18.66,2.09l12.97-16.63c-9.98-2.15-20.61-3.3-31.63-3.3-14.71,0-28.71,2.05-41.41,5.77-3.23.94-6.38,1.99-9.43,3.15-31.95,12.06-53.56,35.13-53.56,61.61,0,7.08,1.56,13.92,4.43,20.37,1.18,2.66,2.58,5.23,4.2,7.75,6.99,10.85,17.91,20.31,31.56,27.5,2.73,1.44,5.58,2.79,8.52,4.05,16.11,6.88,35.2,10.86,55.68,10.86s40-4.08,56.24-11.1l-32.94-37.24c-7.13,2.13-15.01,3.31-23.3,3.31"/>
  <path class="st0" d="M220.1,76.51l-30.11,12.34c4.35,5.49,6.82,11.77,6.82,18.43,0,13.46-10.06,25.32-25.38,32.35l32.32,36.54c24.12-12.92,39.59-32.89,39.59-55.3,0-16.81-8.71-32.25-23.24-44.37"/>
  <path class="st2" d="M1560.02,97.8c-6.26-9.05-16.31-13.45-30.72-13.45-13.4,0-25.52,3.94-33.6,10.88v-7.81c0-.48-.39-.87-.87-.87h-16.96c-.48,0-.86.39-.86.87v81.55c0,.48.38.86.86.86h17.36c.47,0,.86-.38.86-.86v-43.05c0-17.8,15.89-25.8,27.17-25.8,19.47,0,21.73,10.28,21.73,18.01v50.83c0,.48.39.86.86.86h18.71c.48,0,.87-.38.87-.86v-50.97c0-6.06-.42-13.13-5.41-20.2"/>
  <path class="st2" d="M949.48,87.08c-12.89,0-22.34,4.22-29.65,13.25-5.4-8.78-14.09-13.25-25.84-13.25-14.03,0-21.48,6.5-25.36,10.71v-7.63c0-.48-.38-.87-.87-.87h-17.53c-.47,0-.87.38-.87.87v81.54c0,.48.4.86.87.86h17.86c.49,0,.87-.38.87-.86v-47.66c0-20.57,18.86-21.16,21.01-21.16,13.9,0,15.06,11.21,15.06,21.72v47.11c0,.48.38.86.87.86h18.01c.49,0,.88-.38.88-.86v-45.59c0-21.56,15.84-23.23,20.69-23.23,10.42,0,15.7,6.06,15.7,18v50.83c0,.48.38.86.87.86h18.01c.48,0,.87-.38.87-.86v-49.86c0-8.37-.73-15.25-4.29-21.65-3.62-6.33-12.66-13.1-27.14-13.1"/>
  <path class="st2" d="M1298.17,82.17c-16.86,0-27.07,5.63-32.92,10.9v-7.82c0-.48-.41-.87-.91-.87h-16.79c-.49,0-.9.39-.9.87v113.53c0,.48.41.87.9.87h17.12c.49,0,.9-.38.9-.87v-39.49c5.02,3.8,17.19,10.56,32.76,10.56,27.88,0,49.71-19.25,49.71-43.84s-21.92-43.85-49.87-43.85M1298.88,152.39c-7.98,0-33.97-1.91-33.97-26.37s28.3-26.51,33.97-26.51c17.9,0,30.4,10.9,30.4,26.51s-12.5,26.37-30.4,26.37"/>
  <path class="st2" d="M775.77,84.35c-28.07,0-56.49,15.06-56.49,43.84s28.42,43.83,56.49,43.83,56.66-15.05,56.66-43.83-28.51-43.84-56.66-43.84M775.77,156.97c-15.86,0-35.58-7.54-35.58-28.77s19.72-28.92,35.58-28.92c12.76,0,35.57,6.09,35.57,28.92,0,21.24-19.72,28.77-35.57,28.77"/>
  <path class="st2" d="M340.66,66.58c-17.37,0-32.15,4.55-43.93,13.53-13.6,10.32-20.48,23.8-20.48,40.08s6.79,30.13,20.2,40.37c11.69,8.89,26.56,13.39,44.21,13.39,12.56,0,23.53-1.89,32.59-5.64,9.08-3.74,17.32-9.92,24.5-18.34.16-.2.24-.46.2-.72-.05-.26-.21-.48-.45-.6l-14.1-8.98c-.35-.2-.78-.12-1.06.17-9.84,10.69-23.54,16.11-40.73,16.11-14.25,0-25.69-3.43-34.03-10.21-8.29-6.73-12.03-14.58-12.03-25.55s3.79-18.85,12.18-25.71c8.42-6.91,19.5-10.42,32.93-10.42,17.74,0,31.72,5.34,41.55,15.84.25.26.6.34.93.22l14.93-5.98c.25-.09.46-.3.52-.56.09-.27.03-.55-.13-.78-13.36-17.41-32.81-26.23-57.81-26.23"/>
  <path class="st2" d="M516.66,84.76h-16.43c-.48,0-.87.39-.87.87v53.58c0,12.02-10.33,17.87-31.59,17.87s-31.72-5.84-31.72-17.87v-53.58c0-.48-.41-.87-.88-.87h-16.43c-.48,0-.87.39-.87.87v56.88c0,9.19,4.6,16.77,13.68,22.56,8.96,5.71,21.14,8.61,36.22,8.61s27.12-2.9,36.08-8.61c9.08-5.78,13.69-13.37,13.69-22.56v-56.88c0-.48-.4-.87-.88-.87"/>
  <path class="st2" d="M622.7,124.96c-5.93-3.63-15.96-6.18-29.8-7.56-9.6-.92-19.18-1.79-28.71-2.61-6.51-1.11-9.83-3.42-9.83-6.86,0-6.1,9.16-9.2,27.21-9.2,12.68,0,24.57,2.89,35.35,8.58.34.18.77.11,1.03-.17l10.15-10.75c.17-.18.26-.43.23-.68-.02-.25-.17-.47-.36-.63-11.88-8.33-27.58-12.56-46.66-12.56-14.34,0-25.66,2.43-33.66,7.22-8.14,4.88-12.28,11.59-12.28,19.96,0,6.97,2.62,12.35,7.77,15.99,5.02,3.55,12.91,5.89,23.41,6.9,2.62.27,9.67.68,21.56,1.24,7.38.37,12.89,1.05,16.37,2.03,6.03,1.73,8.96,4.57,8.96,8.67,0,3.7-2.39,6.63-7.3,8.93-5.06,2.37-12.37,3.57-21.68,3.57-16.65,0-30.85-4.07-42.24-12.1-.39-.27-.91-.19-1.19.18l-8.91,11.71c-.29.39-.22.93.16,1.22,13.06,9.99,30.7,15.05,52.45,15.05,15.43,0,27.39-2.55,35.58-7.56,8.32-5.1,12.54-12.45,12.54-21.82,0-8.37-3.42-14.68-10.15-18.78"/>
  <path class="st2" d="M1106.11,69.75h-19.28c-.55,0-1,.39-1,.87v67.87c0,6.93-2.41,11.89-7.13,14.74-4.84,2.92-12.96,4.4-24.15,4.4-10.02,0-17.49-1.46-22.21-4.35-4.64-2.84-7.42-7.69-8.25-14.43-.04-.45-.49-.78-1.01-.78h-19.6c-.28,0-.54.09-.74.27-.19.17-.29.4-.28.63.66,11.41,5.42,20.25,14.12,26.25,8.65,5.99,21.06,9.01,36.86,9.01,17.37,0,30.8-3.09,39.89-9.21,9.15-6.16,13.8-15.12,13.8-26.64v-67.76c0-.48-.46-.87-1.02-.87"/>
  <path class="st2" d="M1213.84,87.23c-8.42-4.8-20.33-7.21-35.4-7.21-20.05,0-36.57,4.22-49.05,12.56-.22.14-.36.36-.38.61-.03.24.05.49.23.67l10.64,10.74c.3.3.78.37,1.17.18,11.32-5.69,23.81-8.57,37.12-8.57,18.53,0,28.75,3.42,28.82,9.63v8.93c-10.96-3.13-23.71-3.91-37.97-2.37-16.51,1.8-28.02,5.21-35.2,10.44-7.41,5.41-10.63,12.73-9.54,21.77.45,3.68,1.71,6.95,3.68,9.55,2.49,4.77,6.71,8.6,12.5,11.35,6.98,3.33,16.18,5.02,27.37,5.02,3.33,0,6.9-.15,10.62-.44,10.18-.81,19.77-2.73,28.53-5.7v5.03c0,.47.41.86.92.87l17.88.1c.35.06.49-.09.67-.25.17-.16.28-.38.28-.62v-61.6c0-.25.21-.59-.01-.75,0-8.36-4.33-15.07-12.88-19.95M1206.98,146.68c-8.67,4.03-18.67,6.51-29.76,7.4-9.74.78-17.49.19-23.02-1.74-5.89-2.05-10.06-5.68-10.37-9.01-.02-.09-.16-.52-.19-.61-.29-1.98.27-3.82,1.68-5.48,3.64-4.29,12.59-7.32,25.92-8.77,3.16-.35,6.34-.52,9.44-.52,8.97,0,17.81,1.46,26.3,4.35v14.38Z"/>
  <path class="st2" d="M1447.62,87.23c-8.41-4.8-20.33-7.21-35.4-7.21-20.06,0-36.57,4.22-49.06,12.56-.21.14-.35.36-.39.61-.02.24.07.49.25.67l10.65,10.74c.29.3.77.37,1.16.18,11.31-5.69,23.8-8.57,37.1-8.57,18.54,0,28.76,3.42,28.82,9.63v8.93c-10.95-3.13-23.71-3.91-37.96-2.37-16.51,1.8-28.02,5.21-35.2,10.44-7.41,5.41-10.62,12.73-9.54,21.77.45,3.68,1.7,6.95,3.68,9.55,2.51,4.77,6.71,8.6,12.5,11.35,6.98,3.33,16.17,5.02,27.37,5.02,3.33,0,6.89-.15,10.63-.44,10.18-.81,19.75-2.73,28.51-5.7v5.03c0,.47.41.86.93.87l17.87.1c.36.06.5-.09.68-.25.17-.16.28-.38.28-.62v-61.6c0-.25.2-.59-.01-.75,0-8.36-4.33-15.07-12.88-19.95M1440.75,146.68c-8.66,4.03-18.66,6.51-29.75,7.4-9.73.78-17.48.19-23.02-1.74-5.89-2.05-10.05-5.68-10.37-9.01-.01-.09-.16-.52-.19-.61-.28-1.98.27-3.82,1.68-5.48,3.63-4.29,12.59-7.32,25.92-8.77,3.17-.35,6.34-.52,9.44-.52,8.97,0,17.81,1.46,26.29,4.35v14.38Z"/>
  <path class="st2" d="M710.24,84.35h-29.06v-19.68c0-.48-.37-.87-.87-.87h-16.43c-.48,0-.87.39-.87.87v19.68h-19.77c-.48,0-.87.39-.87.86v14.88c0,.48.39.86.87.86h19.77v48.41s.03.04.04.08c.09,7.58.73,10.6,2.91,14.15,3.47,5.8,10.15,8.5,21.04,8.5,3.81,0,8.51-.33,14.4-1,.26-.03.45-.25.45-.51v-14.78c0-.15-.07-.3-.17-.39-.11-.1-.26-.15-.41-.12-4.32.58-7.74.85-10.75.85-7.27,0-9.26-2.03-9.26-9.45,0-.08-.05-.13-.09-.19v-45.54h29.06c.47,0,.86-.39.86-.86v-14.88c0-.48-.39-.86-.86-.86"/>
</svg>